# xmcd CD database file
#
# Track frame offsets:
#	150
#	13397
#	23480
#	36742
#	49640
#	60885
#	74385
#	86662
#	104725
#	117860
#	129602
#	141647
#	152785
#	167042
#	189090
#
# Disc length: 2680 seconds
#
# Revision: 0
# Processed by: cddbd v1.4PL0 Copyright (c) Steve Scherf et al.
# Submitted via: Feurio! 1.65 - http://www.feurio.com
#
DISCID=d30a760f
DTITLE=Various Artist - Soul Mother
DYEAR=1900
DGENRE=
TTITLE0=Sam and Dave - Soul Man
TTITLE1=James Brown - Papa's got a brand new bag
TTITLE2=Eddie Floyd - Knock on wood
TTITLE3=Dobie Grey - The in crowd
TTITLE4=The Drifters - Save the last dance for me
TTITLE5=Ben E King - Stand by me
TTITLE6=The Kingsmen - Louie Louie
TTITLE7=Dobie Grey - Driftaway
TTITLE8=The Drifters - On Broadway
TTITLE9=Sam and Dave - Hold on I'm comin'
TTITLE10=Martha Reeves - Heatwave
TTITLE11=Brook Benton - So many ways
TTITLE12=Percy Sledge - Warm and Tender Love
TTITLE13=James Brown - It's too funky in here
TTITLE14=Martha Reeves - Quicksand
EXTD=
EXTT0=
EXTT1=
EXTT2=
EXTT3=
EXTT4=
EXTT5=
EXTT6=
EXTT7=
EXTT8=
EXTT9=
EXTT10=
EXTT11=
EXTT12=
EXTT13=
EXTT14=
PLAYORDER=
